<svg id="visual" viewBox="0 0 900 600" width="900" height="600" xmlns="http://www.w3.org/2000/svg" xmlns:xlink="http://www.w3.org/1999/xlink" version="1.1"><rect x="0" y="0" width="900" height="600" fill="#002233"></rect><path d="M0 425L21.5 417.3C43 409.7 86 394.3 128.8 387.2C171.7 380 214.3 381 257.2 383.2C300 385.3 343 388.7 385.8 389.2C428.7 389.7 471.3 387.3 514.2 392C557 396.7 600 408.3 642.8 423C685.7 437.7 728.3 455.3 771.2 464.7C814 474 857 475 878.5 475.5L900 476L900 601L878.5 601C857 601 814 601 771.2 601C728.3 601 685.7 601 642.8 601C600 601 557 601 514.2 601C471.3 601 428.7 601 385.8 601C343 601 300 601 257.2 601C214.3 601 171.7 601 128.8 601C86 601 43 601 21.5 601L0 601Z" fill="#0066FF" stroke-linecap="round" stroke-linejoin="miter"></path></svg>